<svg xmlns="http://www.w3.org/2000/svg" width="300" height="235" viewBox="0 0 300 235" version="1.1"><path d="M 106.500 15.935 C 94.928 18.752, 85.913 30.972, 84.346 45.966 C 82.544 63.205, 92.231 82.869, 106.082 90.091 C 112.416 93.394, 123.944 93.435, 129.221 90.173 C 139.268 83.963, 144.988 73.073, 145.772 58.668 C 146.369 47.702, 144.325 39.359, 139.037 31.179 C 134.273 23.807, 128.484 19.252, 120.868 16.882 C 114.550 14.915, 111.511 14.715, 106.500 15.935 M 180.882 16.381 C 169.269 20.530, 161.260 30.225, 157.492 44.693 C 150.620 71.077, 168.695 98.111, 189.820 93.043 C 207.205 88.873, 220.971 63.362, 217.095 42.500 C 213.470 22.989, 196.547 10.783, 180.882 16.381 M 237.951 72.306 C 220.652 77.184, 206.999 99.828, 209.464 119.555 C 210.450 127.448, 216.092 138.159, 221.269 141.966 C 229.046 147.685, 239.288 148.439, 248.122 143.943 C 254.829 140.529, 263.934 130.596, 268.352 121.872 C 271.648 115.365, 272.281 113.047, 272.731 105.831 C 273.378 95.454, 271.540 88.304, 266.539 81.755 C 260.277 73.553, 247.962 69.484, 237.951 72.306 M 45.500 73.814 C 36.933 77.826, 30.125 88.571, 29.251 99.459 C 28.186 112.731, 33.142 124.947, 43.742 135.181 C 51.844 143.002, 57.027 145.824, 64.773 146.634 C 83.265 148.567, 96.494 128.268, 91.663 105.374 C 87.364 85.003, 74.694 72.877, 57.022 72.220 C 51.317 72.008, 48.534 72.393, 45.500 73.814 M 134.893 103.306 C 126.977 106.182, 121.102 110.079, 114.796 116.634 C 108.186 123.506, 107.827 124.015, 92.079 148.872 C 72.397 179.939, 71.532 181.716, 71.576 191 C 71.636 203.677, 77.966 213.348, 89.729 218.734 C 94.678 220.999, 96.153 221.210, 103.877 220.752 C 113.234 220.198, 120.148 217.746, 128.437 212.043 C 133.893 208.289, 134.021 208.829, 123.618 191.644 C 109.899 168.980, 107.381 161.938, 108.282 148.751 C 109.955 124.246, 134.348 104.886, 158.110 109.201 C 179.721 113.126, 195.549 133.956, 193.699 156.040 C 192.941 165.093, 190.609 170.618, 179.658 189.300 C 174.436 198.210, 170.013 206.369, 169.831 207.431 C 169.409 209.890, 173.560 212.775, 183.775 217.121 C 193.859 221.411, 205.403 222.266, 212.135 219.221 C 218.368 216.401, 224.100 211.055, 227.532 204.859 C 230.176 200.085, 230.498 198.572, 230.482 191 C 230.460 180.800, 230.961 181.814, 209.413 148.321 C 191.004 119.706, 186.924 114.450, 179.035 109.182 C 170.837 103.708, 164.724 101.942, 152 101.374 C 142.708 100.959, 140.740 101.181, 134.893 103.306 M 143.223 116.006 C 133.268 118.098, 123.783 125.772, 118.313 136.160 C 115.744 141.036, 115.501 142.413, 115.508 152 C 115.516 161.634, 115.770 163.036, 118.587 169 C 125.065 182.711, 149.312 220.396, 151.243 219.752 C 153.858 218.881, 175.946 183.929, 183.303 169.021 C 186.286 162.976, 186.500 161.838, 186.500 152.021 C 186.500 142.402, 186.257 141.039, 183.667 136.119 C 179.861 128.892, 172.170 121.408, 165.532 118.472 C 159.370 115.746, 149.596 114.666, 143.223 116.006 M 143.929 137.750 C 139.678 139.903, 138.012 141.468, 136.250 144.962 C 133.447 150.521, 133.412 154.153, 136.107 159.721 C 140.067 167.902, 150.190 171.539, 157.901 167.551 C 168.702 161.966, 170.775 149.069, 162.215 140.710 C 158.868 137.442, 153.831 135, 150.436 135 C 149.843 135, 146.915 136.238, 143.929 137.750" stroke="none" fill="#ffffff" fill-rule="evenodd"/><path d="M 0 117.503 L 0 235.006 150.250 234.753 L 300.500 234.500 300.754 117.250 L 301.008 0 150.504 0 L 0 0 0 117.503 M 0.484 118 C 0.484 182.625, 0.603 209.063, 0.750 176.750 C 0.896 144.438, 0.896 91.563, 0.750 59.250 C 0.603 26.938, 0.484 53.375, 0.484 118 M 106.500 15.935 C 94.928 18.752, 85.913 30.972, 84.346 45.966 C 82.544 63.205, 92.231 82.869, 106.082 90.091 C 112.416 93.394, 123.944 93.435, 129.221 90.173 C 139.268 83.963, 144.988 73.073, 145.772 58.668 C 146.369 47.702, 144.325 39.359, 139.037 31.179 C 134.273 23.807, 128.484 19.252, 120.868 16.882 C 114.550 14.915, 111.511 14.715, 106.500 15.935 M 180.882 16.381 C 169.269 20.530, 161.260 30.225, 157.492 44.693 C 150.620 71.077, 168.695 98.111, 189.820 93.043 C 207.205 88.873, 220.971 63.362, 217.095 42.500 C 213.470 22.989, 196.547 10.783, 180.882 16.381 M 237.951 72.306 C 220.652 77.184, 206.999 99.828, 209.464 119.555 C 210.450 127.448, 216.092 138.159, 221.269 141.966 C 229.046 147.685, 239.288 148.439, 248.122 143.943 C 254.829 140.529, 263.934 130.596, 268.352 121.872 C 271.648 115.365, 272.281 113.047, 272.731 105.831 C 273.378 95.454, 271.540 88.304, 266.539 81.755 C 260.277 73.553, 247.962 69.484, 237.951 72.306 M 45.500 73.814 C 36.933 77.826, 30.125 88.571, 29.251 99.459 C 28.186 112.731, 33.142 124.947, 43.742 135.181 C 51.844 143.002, 57.027 145.824, 64.773 146.634 C 83.265 148.567, 96.494 128.268, 91.663 105.374 C 87.364 85.003, 74.694 72.877, 57.022 72.220 C 51.317 72.008, 48.534 72.393, 45.500 73.814 M 134.893 103.306 C 126.977 106.182, 121.102 110.079, 114.796 116.634 C 108.186 123.506, 107.827 124.015, 92.079 148.872 C 72.397 179.939, 71.532 181.716, 71.576 191 C 71.636 203.677, 77.966 213.348, 89.729 218.734 C 94.678 220.999, 96.153 221.210, 103.877 220.752 C 113.234 220.198, 120.148 217.746, 128.437 212.043 C 133.893 208.289, 134.021 208.829, 123.618 191.644 C 109.899 168.980, 107.381 161.938, 108.282 148.751 C 109.955 124.246, 134.348 104.886, 158.110 109.201 C 179.721 113.126, 195.549 133.956, 193.699 156.040 C 192.941 165.093, 190.609 170.618, 179.658 189.300 C 174.436 198.210, 170.013 206.369, 169.831 207.431 C 169.409 209.890, 173.560 212.775, 183.775 217.121 C 193.859 221.411, 205.403 222.266, 212.135 219.221 C 218.368 216.401, 224.100 211.055, 227.532 204.859 C 230.176 200.085, 230.498 198.572, 230.482 191 C 230.460 180.800, 230.961 181.814, 209.413 148.321 C 191.004 119.706, 186.924 114.450, 179.035 109.182 C 170.837 103.708, 164.724 101.942, 152 101.374 C 142.708 100.959, 140.740 101.181, 134.893 103.306 M 143.223 116.006 C 133.268 118.098, 123.783 125.772, 118.313 136.160 C 115.744 141.036, 115.501 142.413, 115.508 152 C 115.516 161.634, 115.770 163.036, 118.587 169 C 125.065 182.711, 149.312 220.396, 151.243 219.752 C 153.858 218.881, 175.946 183.929, 183.303 169.021 C 186.286 162.976, 186.500 161.838, 186.500 152.021 C 186.500 142.402, 186.257 141.039, 183.667 136.119 C 179.861 128.892, 172.170 121.408, 165.532 118.472 C 159.370 115.746, 149.596 114.666, 143.223 116.006 M 143.929 137.750 C 139.678 139.903, 138.012 141.468, 136.250 144.962 C 133.447 150.521, 133.412 154.153, 136.107 159.721 C 140.067 167.902, 150.190 171.539, 157.901 167.551 C 168.702 161.966, 170.775 149.069, 162.215 140.710 C 158.868 137.442, 153.831 135, 150.436 135 C 149.843 135, 146.915 136.238, 143.929 137.750" stroke="none" fill="#040404" fill-rule="evenodd"/></svg>