<svg xmlns="http://www.w3.org/2000/svg" width="300" height="235" viewBox="0 0 300 235" version="1.1"><path d="M 0 117.503 L 0 235.006 150.250 234.753 L 300.500 234.500 300.754 117.250 L 301.008 0 150.504 0 L 0 0 0 117.503 M 0.484 118 C 0.484 182.625, 0.603 209.063, 0.750 176.750 C 0.896 144.438, 0.896 91.563, 0.750 59.250 C 0.603 26.938, 0.484 53.375, 0.484 118 M 106.500 15.881 C 90.911 19.958, 81.135 39.605, 84.945 59.200 C 87.534 72.512, 95.957 84.811, 106.111 90.106 C 112.416 93.394, 123.957 93.427, 129.221 90.173 C 134.754 86.753, 140.651 79.525, 143.112 73.147 C 146.182 65.191, 146.806 51.882, 144.507 43.389 C 141.409 31.941, 132.885 21.357, 123.662 17.503 C 119.283 15.674, 110.476 14.841, 106.500 15.881 M 180.882 16.381 C 172.022 19.547, 165.924 25.228, 161.118 34.793 C 152.039 52.864, 155.209 74.679, 168.708 87.016 C 181.158 98.394, 196.063 95.333, 208.451 78.853 C 214.818 70.383, 217.481 61.788, 217.391 50 C 217.334 42.583, 216.811 39.191, 215.005 34.531 C 209.383 20.022, 193.835 11.752, 180.882 16.381 M 237.324 72.381 C 220.128 78, 207.040 100.159, 209.464 119.555 C 210.450 127.448, 216.092 138.159, 221.269 141.966 C 229.046 147.685, 239.288 148.439, 248.122 143.943 C 254.884 140.501, 263.933 130.599, 268.430 121.719 C 271.843 114.980, 272.418 112.863, 272.797 105.638 C 273.336 95.375, 271.454 88.191, 266.539 81.755 C 260.210 73.466, 246.987 69.223, 237.324 72.381 M 45.500 73.592 C 40.338 76.405, 34.206 83.094, 31.923 88.401 C 25.406 103.550, 30.060 121.972, 43.742 135.181 C 51.844 143.002, 57.027 145.824, 64.773 146.634 C 83.265 148.567, 96.494 128.268, 91.663 105.374 C 88.746 91.550, 81.855 81.337, 71.834 75.985 C 66.320 73.041, 64.400 72.561, 57 72.280 C 50.550 72.035, 47.776 72.351, 45.500 73.592 M 134.829 103.397 C 119.378 108.851, 113.282 115.338, 91.972 149 C 72.244 180.164, 71.487 181.722, 71.556 191 C 71.650 203.681, 77.982 213.356, 89.699 218.720 C 94.584 220.956, 96.155 221.184, 103.847 220.773 C 113.227 220.272, 119.941 217.889, 128.437 212.043 C 133.894 208.289, 134.036 208.886, 123.527 191.448 C 119.429 184.648, 114.923 176.809, 113.514 174.027 C 101.775 150.861, 109.687 125.329, 132.305 113.393 C 138.795 109.968, 140.397 109.555, 148.650 109.183 C 163.768 108.501, 174.683 113.504, 184.585 125.656 C 191.006 133.537, 193.368 140.583, 193.414 152 C 193.464 164.317, 192.181 167.903, 180.856 187.105 C 169.063 207.101, 168.552 208.285, 170.834 210.350 C 173.553 212.811, 187.215 218.840, 194.024 220.585 C 207.140 223.945, 220.410 217.717, 227.532 204.859 C 230.176 200.085, 230.498 198.572, 230.482 191 C 230.461 180.994, 230.718 181.537, 212.531 153 C 189.487 116.841, 185.237 111.688, 173.873 106.129 C 162.097 100.367, 146.503 99.276, 134.829 103.397 M 143.223 116.001 C 133.218 118.115, 123.665 125.868, 118.385 136.160 C 116.211 140.398, 115.558 143.254, 115.219 150 C 114.701 160.324, 116.353 165.704, 124.397 179.889 C 131.701 192.768, 149.693 220, 150.899 220 C 153.142 220, 175.567 184.725, 183.307 169.021 C 186.285 162.979, 186.500 161.833, 186.500 152.021 C 186.500 142.570, 186.231 140.991, 183.854 136.500 C 175.496 120.705, 159.399 112.584, 143.223 116.001 M 143.929 137.750 C 134.111 142.723, 131.337 153.107, 137.465 161.949 C 140.687 166.599, 145.280 169, 150.951 169 C 156.056 169, 159.781 167.153, 163.718 162.668 C 169.489 156.096, 168.881 147.219, 162.215 140.710 C 158.868 137.442, 153.831 135, 150.436 135 C 149.843 135, 146.915 136.238, 143.929 137.750" stroke="none" fill="#ffffff" fill-rule="evenodd"/><path d="M 106.500 15.881 C 90.911 19.958, 81.135 39.605, 84.945 59.200 C 87.534 72.512, 95.957 84.811, 106.111 90.106 C 112.416 93.394, 123.957 93.427, 129.221 90.173 C 134.754 86.753, 140.651 79.525, 143.112 73.147 C 146.182 65.191, 146.806 51.882, 144.507 43.389 C 141.409 31.941, 132.885 21.357, 123.662 17.503 C 119.283 15.674, 110.476 14.841, 106.500 15.881 M 180.882 16.381 C 172.022 19.547, 165.924 25.228, 161.118 34.793 C 152.039 52.864, 155.209 74.679, 168.708 87.016 C 181.158 98.394, 196.063 95.333, 208.451 78.853 C 214.818 70.383, 217.481 61.788, 217.391 50 C 217.334 42.583, 216.811 39.191, 215.005 34.531 C 209.383 20.022, 193.835 11.752, 180.882 16.381 M 237.324 72.381 C 220.128 78, 207.040 100.159, 209.464 119.555 C 210.450 127.448, 216.092 138.159, 221.269 141.966 C 229.046 147.685, 239.288 148.439, 248.122 143.943 C 254.884 140.501, 263.933 130.599, 268.430 121.719 C 271.843 114.980, 272.418 112.863, 272.797 105.638 C 273.336 95.375, 271.454 88.191, 266.539 81.755 C 260.210 73.466, 246.987 69.223, 237.324 72.381 M 45.500 73.592 C 40.338 76.405, 34.206 83.094, 31.923 88.401 C 25.406 103.550, 30.060 121.972, 43.742 135.181 C 51.844 143.002, 57.027 145.824, 64.773 146.634 C 83.265 148.567, 96.494 128.268, 91.663 105.374 C 88.746 91.550, 81.855 81.337, 71.834 75.985 C 66.320 73.041, 64.400 72.561, 57 72.280 C 50.550 72.035, 47.776 72.351, 45.500 73.592 M 134.829 103.397 C 119.378 108.851, 113.282 115.338, 91.972 149 C 72.244 180.164, 71.487 181.722, 71.556 191 C 71.650 203.681, 77.982 213.356, 89.699 218.720 C 94.584 220.956, 96.155 221.184, 103.847 220.773 C 113.227 220.272, 119.941 217.889, 128.437 212.043 C 133.894 208.289, 134.036 208.886, 123.527 191.448 C 119.429 184.648, 114.923 176.809, 113.514 174.027 C 101.775 150.861, 109.687 125.329, 132.305 113.393 C 138.795 109.968, 140.397 109.555, 148.650 109.183 C 163.768 108.501, 174.683 113.504, 184.585 125.656 C 191.006 133.537, 193.368 140.583, 193.414 152 C 193.464 164.317, 192.181 167.903, 180.856 187.105 C 169.063 207.101, 168.552 208.285, 170.834 210.350 C 173.553 212.811, 187.215 218.840, 194.024 220.585 C 207.140 223.945, 220.410 217.717, 227.532 204.859 C 230.176 200.085, 230.498 198.572, 230.482 191 C 230.461 180.994, 230.718 181.537, 212.531 153 C 189.487 116.841, 185.237 111.688, 173.873 106.129 C 162.097 100.367, 146.503 99.276, 134.829 103.397 M 143.223 116.001 C 133.218 118.115, 123.665 125.868, 118.385 136.160 C 116.211 140.398, 115.558 143.254, 115.219 150 C 114.701 160.324, 116.353 165.704, 124.397 179.889 C 131.701 192.768, 149.693 220, 150.899 220 C 153.142 220, 175.567 184.725, 183.307 169.021 C 186.285 162.979, 186.500 161.833, 186.500 152.021 C 186.500 142.570, 186.231 140.991, 183.854 136.500 C 175.496 120.705, 159.399 112.584, 143.223 116.001 M 143.929 137.750 C 134.111 142.723, 131.337 153.107, 137.465 161.949 C 140.687 166.599, 145.280 169, 150.951 169 C 156.056 169, 159.781 167.153, 163.718 162.668 C 169.489 156.096, 168.881 147.219, 162.215 140.710 C 158.868 137.442, 153.831 135, 150.436 135 C 149.843 135, 146.915 136.238, 143.929 137.750" stroke="none" fill="#050505" fill-rule="evenodd"/></svg>